<?xml version="1.0" standalone="no"?>
<!DOCTYPE svg PUBLIC "-//W3C//DTD SVG 20010904//EN"
 "http://www.w3.org/TR/2001/REC-SVG-20010904/DTD/svg10.dtd">
<svg version="1.0" xmlns="http://www.w3.org/2000/svg"
 width="500.000000pt" height="500.000000pt" viewBox="0 0 500.000000 500.000000"
 preserveAspectRatio="xMidYMid meet">
<metadata>
Created by potrace 1.11, written by Peter Selinger 2001-2013
</metadata>
<g transform="translate(0.000000,500.000000) scale(0.100000,-0.100000)"
fill="#000000" stroke="none">
<path d="M2458 2803 c7 -3 16 -2 19 1 4 3 -2 6 -13 5 -11 0 -14 -3 -6 -6z"/>
<path d="M2518 2803 c7 -3 16 -2 19 1 4 3 -2 6 -13 5 -11 0 -14 -3 -6 -6z"/>
<path d="M1700 1840 c0 -36 3 -40 25 -40 20 0 45 24 45 44 0 12 -33 36 -51 36
-16 0 -19 -7 -19 -40z m45 0 c0 -16 -6 -26 -17 -28 -14 -3 -18 3 -18 28 0 25
4 31 18 28 11 -2 17 -12 17 -28z"/>
<path d="M1810 1866 c-6 -8 -10 -25 -8 -38 2 -18 9 -23 33 -23 24 0 31 5 33
23 4 25 -13 52 -33 52 -7 0 -18 -7 -25 -14z m45 -26 c0 -29 -32 -41 -41 -16
-9 24 4 48 23 44 12 -2 18 -12 18 -28z"/>
<path d="M1910 1840 c0 -37 2 -40 28 -39 23 2 24 2 5 6 -27 5 -31 23 -5 23 16
1 16 1 0 11 -24 14 -22 27 5 32 19 4 18 4 -5 6 -26 1 -28 -2 -28 -39z"/>
<path d="M2000 1866 c-9 -12 -7 -17 9 -28 26 -16 27 -25 4 -31 -17 -4 -17 -5
0 -6 26 -2 33 27 11 44 -17 13 -17 16 -4 25 8 5 10 10 4 10 -6 0 -17 -6 -24
-14z"/>
<path d="M2122 1840 c0 -39 1 -41 7 -15 l7 30 13 -24 14 -24 12 24 13 24 5
-30 c3 -23 4 -19 5 15 l2 45 -18 -27 -18 -28 -22 28 -21 27 1 -45z"/>
<path d="M2245 1865 c4 -11 10 -30 12 -42 5 -21 7 -19 24 14 23 45 24 55 3 28
l-15 -20 -16 20 -16 20 8 -20z"/>
<path d="M2382 1868 c9 -7 19 -26 21 -43 4 -27 4 -27 6 7 0 20 7 39 14 41 6 3
-3 6 -22 6 -30 1 -32 -1 -19 -11z"/>
<path d="M2470 1865 c-26 -32 13 -81 48 -59 34 22 22 74 -18 74 -10 0 -23 -7
-30 -15z m49 -9 c15 -18 3 -46 -19 -46 -10 0 -21 7 -24 16 -6 16 9 44 24 44 4
0 13 -6 19 -14z"/>
<path d="M2571 1870 c0 -8 6 -28 13 -45 l13 -30 8 28 c9 35 21 35 30 0 l7 -28
13 25 c8 14 14 32 14 40 0 9 -5 5 -13 -9 l-14 -24 -6 21 c-9 28 -23 28 -32 0
-6 -21 -7 -20 -19 8 -8 16 -14 22 -14 14z"/>
<path d="M2712 1840 c1 -32 2 -37 5 -16 l5 29 23 -29 24 -29 -1 45 c0 38 -1
41 -7 15 l-6 -29 -22 29 -22 30 1 -45z"/>
<path d="M2860 1866 c-9 -12 -7 -17 9 -28 26 -16 27 -25 4 -31 -17 -4 -17 -5
0 -6 26 -2 33 27 11 44 -17 13 -17 16 -4 25 8 5 10 10 4 10 -6 0 -17 -6 -24
-14z"/>
<path d="M2944 1840 c1 -30 4 -35 26 -35 22 0 25 4 27 40 l1 40 -6 -35 c-9
-48 -39 -53 -45 -8 l-4 33 1 -35z"/>
<path d="M3046 1864 c-19 -18 -19 -20 -6 -45 6 -10 21 -19 33 -18 l22 0 -23
10 c-32 12 -27 55 6 52 13 -2 21 1 17 7 -9 15 -31 12 -49 -6z"/>
<path d="M3142 1840 c0 -25 2 -37 5 -27 5 18 6 18 24 1 20 -18 27 -6 7 14 -9
9 -9 15 0 24 20 20 13 32 -7 14 -18 -17 -19 -17 -24 1 -3 10 -5 -2 -5 -27z"/>
<path d="M3239 1871 c8 -5 11 -16 8 -26 -4 -9 -3 -14 3 -10 17 11 11 45 -7 45
-15 0 -15 -2 -4 -9z"/>
</g>
</svg>
